<svg xmlns="http://www.w3.org/2000/svg" viewBox="0 0 900 530" font-family="'Segoe UI',Arial,sans-serif">
  <defs>
    <linearGradient id="g-ok" x1="0" y1="0" x2="1" y2="0"><stop offset="0" stop-color="#4ade80"/><stop offset="1" stop-color="#22d3ee"/></linearGradient>
    <linearGradient id="g-warn" x1="0" y1="0" x2="1" y2="0"><stop offset="0" stop-color="#fbbf24"/><stop offset="1" stop-color="#f97316"/></linearGradient>
    <linearGradient id="g-neutral" x1="0" y1="0" x2="1" y2="0"><stop offset="0" stop-color="#7ecfff"/><stop offset="1" stop-color="#818cf8"/></linearGradient>
    <linearGradient id="g-bar" x1="0" y1="0" x2="1" y2="0"><stop offset="0" stop-color="#22d3ee"/><stop offset="1" stop-color="#4ade80"/></linearGradient>
  </defs>

  <!-- Background -->
  <rect width="900" height="530" rx="16" fill="#0d1b2a"/>

  <!-- ── STATUS BAR ── -->
  <rect x="24" y="20" width="136" height="28" rx="14" fill="rgba(74,222,128,0.15)" stroke="rgba(74,222,128,0.3)" stroke-width="1"/>
  <circle cx="40" cy="34" r="4" fill="#4ade80"/>
  <text x="52" y="39" font-size="12" fill="#4ade80" font-weight="600">Filtration ON</text>

  <rect x="168" y="20" width="86" height="28" rx="14" fill="rgba(148,163,184,0.1)" stroke="rgba(148,163,184,0.2)" stroke-width="1"/>
  <circle cx="182" cy="34" r="4" fill="#475569"/>
  <text x="194" y="39" font-size="12" fill="#94a3b8" font-weight="600">PAC OFF</text>

  <rect x="262" y="20" width="92" height="28" rx="14" fill="rgba(251,191,36,0.12)" stroke="rgba(251,191,36,0.3)" stroke-width="1"/>
  <text x="277" y="39" font-size="11" fill="#fbbf24" font-weight="600">&#9728;&#65039; Journ&#233;e</text>

  <rect x="736" y="20" width="140" height="28" rx="14" fill="rgba(74,222,128,0.1)" stroke="rgba(74,222,128,0.25)" stroke-width="1"/>
  <text x="752" y="39" font-size="11" fill="#4ade80" font-weight="600">&#128267; 72% &#183; 3.71 V</text>

  <!-- ── METRIC CARDS ── -->
  <!-- Temp&#233;rature (neutral) -->
  <rect x="24" y="64" width="204" height="116" rx="12" fill="#122236" stroke="#1e3a5f" stroke-width="1"/>
  <rect x="24" y="64" width="204" height="3" rx="1.5" fill="url(#g-neutral)"/>
  <text x="36" y="84" font-size="9.5" fill="#5a8aaa" font-weight="600" letter-spacing="0.8">&#127777;&#65039; TEMP&#201;RATURE EAU</text>
  <text x="36" y="119" font-size="38" fill="#7ecfff" font-weight="700">26.4</text>
  <text x="122" y="119" font-size="16" fill="#94a3b8">&#176;C</text>
  <text x="146" y="117" font-size="16" fill="#5a8aaa">&#8594;</text>
  <text x="36" y="139" font-size="10.5" fill="#5a8aaa">&#9728;&#65039; Cible jour&#160;<tspan fill="#94a3b8" font-weight="600">27&#176;C</tspan>&#160;&#160;&#127769; Cible nuit&#160;<tspan fill="#94a3b8" font-weight="600">24&#176;C</tspan></text>

  <!-- pH (ok) -->
  <rect x="240" y="64" width="204" height="116" rx="12" fill="#122236" stroke="#1e3a5f" stroke-width="1"/>
  <rect x="240" y="64" width="204" height="3" rx="1.5" fill="url(#g-ok)"/>
  <text x="252" y="84" font-size="9.5" fill="#5a8aaa" font-weight="600" letter-spacing="0.8">&#9879;&#65039; PH</text>
  <text x="252" y="119" font-size="38" fill="#4ade80" font-weight="700">7.21</text>
  <text x="330" y="117" font-size="16" fill="#5a8aaa">&#8594;</text>
  <text x="252" y="139" font-size="10.5" fill="#4ade80">&#10003; Parfait</text>

  <!-- Chlore (warn) -->
  <rect x="456" y="64" width="204" height="116" rx="12" fill="#122236" stroke="#1e3a5f" stroke-width="1"/>
  <rect x="456" y="64" width="204" height="3" rx="1.5" fill="url(#g-warn)"/>
  <text x="468" y="84" font-size="9.5" fill="#5a8aaa" font-weight="600" letter-spacing="0.8">&#129514; CHLORE</text>
  <text x="468" y="119" font-size="38" fill="#fbbf24" font-weight="700">0.85</text>
  <text x="538" y="119" font-size="16" fill="#94a3b8">mg/L</text>
  <text x="598" y="117" font-size="16" fill="#38bdf8">&#8595;</text>
  <text x="468" y="139" font-size="10.5" fill="#fbbf24">&#9888;&#65039; L&#233;g&#232;rement faible</text>

  <!-- Redox (neutral) -->
  <rect x="672" y="64" width="204" height="116" rx="12" fill="#122236" stroke="#1e3a5f" stroke-width="1"/>
  <rect x="672" y="64" width="204" height="3" rx="1.5" fill="url(#g-neutral)"/>
  <text x="684" y="84" font-size="9.5" fill="#5a8aaa" font-weight="600" letter-spacing="0.8">&#9889; POTENTIEL REDOX</text>
  <text x="684" y="119" font-size="38" fill="#7ecfff" font-weight="700">680</text>
  <text x="752" y="119" font-size="16" fill="#94a3b8">mV</text>
  <text x="786" y="117" font-size="16" fill="#5a8aaa">&#8594;</text>

  <!-- ── BOTTOM GRID ── -->

  <!-- Filtration -->
  <rect x="24" y="196" width="276" height="294" rx="12" fill="#122236" stroke="#1e3a5f" stroke-width="1"/>
  <text x="36" y="217" font-size="9.5" fill="#5a8aaa" font-weight="600" letter-spacing="0.8">&#128202; FILTRATION AUJOURD&#39;HUI</text>
  <text x="36" y="250" font-size="28" fill="#7ecfff" font-weight="700">120</text>
  <text x="104" y="250" font-size="12" fill="#5a8aaa">/ 240 min</text>
  <text x="280" y="250" font-size="12" fill="#4ade80" font-weight="600" text-anchor="end">50%</text>
  <rect x="36" y="258" width="240" height="10" rx="5" fill="#1e3a5f"/>
  <rect x="36" y="258" width="120" height="10" rx="5" fill="url(#g-bar)"/>
  <text x="36" y="280" font-size="10" fill="#5a8aaa">0</text>
  <text x="276" y="280" font-size="10" fill="#5a8aaa" text-anchor="end">240 min recommand&#233;es</text>
  <rect x="36" y="292" width="108" height="34" rx="8" fill="rgba(74,222,128,0.18)" stroke="rgba(74,222,128,0.3)" stroke-width="1"/>
  <text x="90" y="314" font-size="12" fill="#4ade80" font-weight="600" text-anchor="middle">&#9654; ON</text>
  <rect x="152" y="292" width="108" height="34" rx="8" fill="rgba(241,98,98,0.15)" stroke="rgba(241,98,98,0.25)" stroke-width="1"/>
  <text x="206" y="314" font-size="12" fill="#f87171" font-weight="600" text-anchor="middle">&#9632; OFF</text>
  <rect x="36" y="334" width="224" height="34" rx="8" fill="rgba(126,207,255,0.14)" stroke="rgba(126,207,255,0.25)" stroke-width="1"/>
  <text x="148" y="356" font-size="12" fill="#7ecfff" font-weight="600" text-anchor="middle">&#9201; Forcer dur&#233;e&#8230;</text>

  <!-- PAC -->
  <rect x="312" y="196" width="276" height="294" rx="12" fill="#122236" stroke="#1e3a5f" stroke-width="1"/>
  <text x="324" y="217" font-size="9.5" fill="#5a8aaa" font-weight="600" letter-spacing="0.8">&#127777;&#65039; POMPE &#192; CHALEUR</text>
  <rect x="324" y="226" width="108" height="34" rx="8" fill="rgba(251,146,60,0.18)" stroke="rgba(251,146,60,0.3)" stroke-width="1"/>
  <text x="378" y="248" font-size="12" fill="#fb923c" font-weight="600" text-anchor="middle">&#9654; ON</text>
  <rect x="440" y="226" width="108" height="34" rx="8" fill="rgba(241,98,98,0.15)" stroke="rgba(241,98,98,0.25)" stroke-width="1"/>
  <text x="494" y="248" font-size="12" fill="#f87171" font-weight="600" text-anchor="middle">&#9632; OFF</text>
  <rect x="324" y="268" width="224" height="34" rx="8" fill="rgba(251,146,60,0.1)" stroke="rgba(251,146,60,0.2)" stroke-width="1"/>
  <text x="436" y="290" font-size="12" fill="#fdba74" font-weight="600" text-anchor="middle">&#9201; Forcer dur&#233;e&#8230;</text>
  <line x1="324" y1="316" x2="564" y2="316" stroke="#1e3a5f" stroke-width="1"/>
  <text x="324" y="336" font-size="9.5" fill="#5a8aaa" font-weight="600" letter-spacing="0.8">&#127769; PLAGE NOCTURNE</text>
  <text x="324" y="360" font-size="11.5" fill="#5a8aaa">Plage nuit</text>
  <text x="564" y="360" font-size="11.5" fill="#e0e8f0" font-weight="600" text-anchor="end">22:00 &#8594; 07:00</text>
  <line x1="324" y1="368" x2="564" y2="368" stroke="#152840" stroke-width="1"/>
  <text x="324" y="390" font-size="11.5" fill="#5a8aaa">PAC autoris&#233;e la nuit</text>
  <text x="564" y="390" font-size="11.5" fill="#94a3b8" font-weight="600" text-anchor="end">Non</text>

  <!-- Secondary -->
  <rect x="600" y="196" width="276" height="294" rx="12" fill="#122236" stroke="#1e3a5f" stroke-width="1"/>
  <text x="612" y="217" font-size="9.5" fill="#5a8aaa" font-weight="600" letter-spacing="0.8">&#128203; INFOS SECONDAIRES</text>
  <text x="612" y="244" font-size="11.5" fill="#5a8aaa">&#9728;&#65039; Indice UV</text>
  <text x="856" y="244" font-size="11.5" fill="#94a3b8" font-weight="600" text-anchor="end">4.2</text>
  <line x1="612" y1="252" x2="856" y2="252" stroke="#152840" stroke-width="1"/>
  <text x="612" y="272" font-size="11.5" fill="#5a8aaa">&#9889; Conductivit&#233;</text>
  <text x="856" y="272" font-size="11.5" fill="#94a3b8" font-weight="600" text-anchor="end">1 240 &#181;S</text>
  <line x1="612" y1="280" x2="856" y2="280" stroke="#152840" stroke-width="1"/>
  <text x="612" y="300" font-size="11.5" fill="#5a8aaa">&#128267; Batterie</text>
  <text x="856" y="300" font-size="11.5" fill="#94a3b8" font-weight="600" text-anchor="end">72%</text>
  <line x1="612" y1="308" x2="856" y2="308" stroke="#152840" stroke-width="1"/>
  <text x="612" y="328" font-size="11.5" fill="#5a8aaa">&#9881;&#65039; Automatisation</text>
  <text x="856" y="328" font-size="11.5" fill="#4ade80" font-weight="600" text-anchor="end">Active</text>

  <!-- ── FOOTER ── -->
  <line x1="24" y1="500" x2="876" y2="500" stroke="#1e3a5f" stroke-width="1"/>
  <text x="754" y="516" font-size="11" fill="#5a8aaa">&#128336; Sync&#160;: <tspan font-weight="600">14:32</tspan></text>
  <text x="876" y="516" font-size="11" fill="#2d5470" text-anchor="end">&#8635; toutes les 30s</text>
</svg>
